<svg width="730" height="545" viewBox="0 0 730 545" fill="none" xmlns="http://www.w3.org/2000/svg">
<path d="M246.438 506.961L235.311 517.205L244.154 502.367C237.187 489.732 225.793 478.813 225.793 478.813C225.793 478.813 202.154 501.462 202.154 519.266C202.154 537.07 212.737 543.287 225.793 543.287C238.848 543.287 249.432 537.07 249.432 519.266C249.285 515.003 248.266 510.815 246.438 506.961Z" fill="#F2F2F2"/>
<path d="M232.45 517.76V518.638C232.398 528.838 230.677 536.797 227.302 542.402C227.254 542.484 227.202 542.563 227.154 542.645L226.776 542.415L226.416 542.189C230.16 536.137 231.485 527.583 231.533 518.685C231.537 518.399 231.542 518.108 231.537 517.816C231.524 514.05 231.294 510.24 230.925 506.538C230.899 506.251 230.868 505.96 230.838 505.669C230.325 500.786 229.587 496.12 228.831 492.067C228.779 491.78 228.722 491.493 228.666 491.211C227.358 484.355 226.025 479.39 225.721 478.29C225.686 478.156 225.664 478.082 225.66 478.065L226.072 477.947L226.077 477.943L226.494 477.826C226.498 477.843 226.572 478.091 226.694 478.551C227.158 480.272 228.366 484.942 229.552 491.102C229.604 491.38 229.661 491.667 229.713 491.954C230.33 495.243 230.934 498.918 231.411 502.776C231.533 503.745 231.642 504.701 231.737 505.643C231.772 505.934 231.802 506.225 231.828 506.512C232.228 510.513 232.435 514.263 232.45 517.76Z" fill="white"/>
<path d="M229.552 491.102C229.261 491.141 228.966 491.18 228.666 491.211C227.852 491.295 227.034 491.337 226.216 491.337C222.728 491.342 219.284 490.564 216.137 489.06C215.955 489.291 215.772 489.521 215.585 489.756C218.896 491.372 222.532 492.21 226.216 492.206C227.089 492.206 227.962 492.159 228.831 492.067C229.126 492.036 229.422 491.997 229.713 491.954C232.115 491.609 234.452 490.902 236.642 489.855C236.455 489.616 236.272 489.382 236.094 489.152C234.022 490.12 231.817 490.778 229.552 491.102V491.102Z" fill="white"/>
<path d="M231.737 505.643C231.437 505.661 231.138 505.669 230.838 505.669C230.747 505.674 230.651 505.674 230.56 505.674C226.781 505.674 223.058 504.76 219.709 503.01C216.359 501.26 213.483 498.727 211.324 495.625C211.15 495.881 210.976 496.138 210.807 496.398C213.057 499.537 216.022 502.094 219.457 503.858C222.892 505.622 226.698 506.542 230.56 506.543C230.682 506.543 230.803 506.543 230.925 506.538C231.229 506.534 231.529 506.525 231.828 506.512C236.467 506.275 240.938 504.706 244.709 501.994C244.57 501.738 244.431 501.481 244.288 501.225C240.623 503.888 236.261 505.423 231.737 505.643V505.643Z" fill="white"/>
<path d="M232.45 517.76C232.146 517.786 231.841 517.803 231.537 517.816C231.212 517.829 230.886 517.838 230.56 517.838C225.482 517.832 220.543 516.182 216.481 513.134C212.42 510.085 209.455 505.804 208.031 500.929C207.835 501.281 207.64 501.629 207.453 501.981C209.058 506.844 212.154 511.077 216.303 514.08C220.451 517.083 225.439 518.702 230.56 518.707C230.886 518.707 231.212 518.703 231.533 518.685C231.841 518.677 232.146 518.659 232.45 518.638C238.592 518.157 244.322 515.36 248.48 510.813C248.388 510.492 248.284 510.175 248.18 509.853C244.164 514.434 238.522 517.27 232.45 517.76V517.76Z" fill="white"/>
<path d="M663.859 522.552L648.76 523.422L665.004 517.55C667.623 503.362 665.73 487.693 665.73 487.693C665.73 487.693 633.091 490.228 621.807 503.999C610.523 517.77 614.77 529.287 624.868 537.562C634.966 545.838 647.091 547.738 658.375 533.967C660.963 530.576 662.83 526.691 663.859 522.552V522.552Z" fill="#F2F2F2"/>
<path d="M646.195 522.038L645.639 522.716C639.133 530.573 632.758 535.639 626.595 537.834C626.506 537.868 626.416 537.895 626.327 537.929L626.181 537.511L626.045 537.108C632.777 534.801 639.223 529.024 644.899 522.172C645.084 521.953 645.272 521.731 645.453 521.503C647.831 518.581 650.067 515.488 652.128 512.391C652.289 512.153 652.45 511.909 652.611 511.664C655.31 507.562 657.695 503.485 659.68 499.871C659.821 499.616 659.959 499.358 660.095 499.104C663.428 492.973 665.544 488.286 666.005 487.243C666.064 487.117 666.094 487.046 666.101 487.03L666.495 487.201L666.501 487.2L666.898 487.374C666.89 487.39 666.79 487.629 666.593 488.062C665.862 489.687 663.836 494.065 660.849 499.582C660.713 499.83 660.575 500.087 660.433 500.342C658.826 503.277 656.964 506.503 654.888 509.79C654.369 510.616 653.847 511.424 653.323 512.214C653.166 512.461 653.005 512.705 652.843 512.944C650.616 516.292 648.4 519.323 646.195 522.038Z" fill="white"/>
<path d="M660.849 499.582C660.599 499.428 660.345 499.271 660.094 499.104C659.412 498.653 658.752 498.167 658.119 497.648C655.419 495.441 653.248 492.657 651.767 489.499C651.48 489.562 651.193 489.624 650.899 489.687C652.436 493.036 654.717 495.988 657.569 498.321C658.245 498.874 658.949 499.392 659.68 499.871C659.927 500.034 660.181 500.191 660.433 500.342C662.51 501.599 664.766 502.532 667.123 503.111C667.13 502.808 667.137 502.511 667.145 502.22C664.928 501.655 662.806 500.766 660.849 499.582V499.582Z" fill="white"/>
<path d="M653.323 512.214C653.08 512.037 652.843 511.854 652.611 511.664C652.538 511.61 652.464 511.549 652.393 511.491C649.47 509.096 647.17 506.029 645.688 502.553C644.206 499.076 643.587 495.293 643.883 491.526C643.586 491.614 643.29 491.702 642.993 491.796C642.745 495.65 643.418 499.507 644.956 503.049C646.495 506.591 648.856 509.715 651.843 512.163C651.937 512.24 652.031 512.317 652.128 512.391C652.365 512.581 652.603 512.764 652.843 512.944C656.581 515.7 661.034 517.321 665.669 517.614C665.724 517.327 665.779 517.041 665.831 516.752C661.309 516.488 656.962 514.911 653.323 512.214V512.214Z" fill="white"/>
<path d="M646.195 522.038C645.943 521.865 645.697 521.686 645.453 521.503C645.193 521.307 644.936 521.107 644.684 520.9C640.76 517.677 637.985 513.269 636.776 508.337C635.566 503.405 635.987 498.214 637.974 493.541C637.6 493.69 637.229 493.835 636.861 493.988C635.02 498.767 634.732 504.004 636.038 508.956C637.343 513.908 640.176 518.322 644.133 521.572C644.385 521.779 644.64 521.982 644.899 522.172C645.143 522.361 645.39 522.54 645.639 522.716C650.694 526.238 656.899 527.707 662.996 526.825C663.13 526.519 663.25 526.207 663.373 525.893C657.364 526.89 651.202 525.508 646.195 522.038Z" fill="white"/>
<path d="M140.035 532.784L151.809 532.784L153.994 487.124L140.032 487.369L140.035 532.784Z" fill="#FFB6B6"/>
<path d="M137.031 528.94L160.218 528.939H160.219C164.138 528.939 167.896 530.496 170.667 533.268C173.438 536.039 174.995 539.797 174.996 543.716V544.197L137.032 544.198L137.031 528.94Z" fill="#2F2E41"/>
<path d="M92.4388 532.784L104.213 532.784L106.546 487.124L92.4363 487.369L92.4388 532.784Z" fill="#FFB6B6"/>
<path d="M89.4353 528.94L112.622 528.939H112.623C116.542 528.939 120.3 530.496 123.071 533.268C125.842 536.039 127.399 539.797 127.399 543.716V544.197L89.436 544.198L89.4353 528.94Z" fill="#2F2E41"/>
<path d="M207.129 337.172C207.082 335.808 206.737 334.471 206.118 333.255C205.498 332.039 204.62 330.973 203.544 330.133C202.469 329.294 201.222 328.7 199.892 328.394C198.562 328.088 197.181 328.078 195.847 328.363L178.656 299.993L171.268 315.567L188.725 340.12C189.353 342.33 190.77 344.233 192.708 345.468C194.645 346.703 196.968 347.184 199.237 346.821C201.505 346.457 203.561 345.274 205.016 343.496C206.471 341.718 207.222 339.467 207.129 337.172H207.129Z" fill="#FFB6B6"/>
<path d="M63.4792 366.847C64.2814 365.743 64.8318 364.476 65.0917 363.136C65.3515 361.797 65.3144 360.416 64.9831 359.093C64.6518 357.769 64.0342 356.534 63.174 355.474C62.3137 354.415 61.2317 353.557 60.004 352.961L63.9051 320.019L48.499 327.75L47.1565 357.848C46.2922 359.977 46.2387 362.349 47.0063 364.514C47.7739 366.68 49.3091 368.489 51.3211 369.598C53.3331 370.707 55.6821 371.04 57.9229 370.533C60.1638 370.026 62.1408 368.714 63.4793 366.847H63.4792Z" fill="#FFB6B6"/>
<path d="M146.938 333.476L155.276 338.415C155.276 338.415 162.051 342.728 159.772 372.726C157.494 402.723 154.772 522.906 154.772 522.906H139.993L116.058 379.341L107.324 524.462L91.7673 523.684C91.7673 523.684 59.9832 358.463 73.7362 340.532L146.938 333.476Z" fill="#2F2E41"/>
<path d="M68.7043 227.318C68.7043 227.318 109.25 214.283 141.963 226.436L139.285 289.541L159.464 338.765C159.464 338.765 95.3131 363.651 73.9349 342.737L80.1698 293.43L68.7043 227.318Z" fill="#FB5012"/>
<path d="M131.063 233.847L139.56 226.436C139.56 226.436 145.227 226.369 150.105 235.089C154.982 243.809 163.819 271.957 163.819 271.957L192.108 319.878L179.663 328.435L134.796 265.683L131.063 233.847Z" fill="#FB5012"/>
<path d="M70.2083 230.43L70.7878 226.476C70.7878 226.476 54.9897 227.645 53.6533 242.868C52.3169 258.091 47.4307 343.993 47.4307 343.993L63.0573 347.104L78.6025 258.939L70.2083 230.43Z" fill="#FB5012"/>
<path d="M124.977 204.511L77.5797 213.845C76.6046 214.035 75.5935 213.832 74.7683 213.278C73.9432 212.724 73.3714 211.866 73.1783 210.891L69.1553 190.46C67.7299 183.201 69.2454 175.673 73.3686 169.531C77.4918 163.388 83.8852 159.135 91.1432 157.706C98.4012 156.277 105.93 157.788 112.074 161.908C118.218 166.029 122.474 172.42 123.907 179.678L127.93 200.109C128.121 201.084 127.917 202.095 127.363 202.921C126.81 203.746 125.951 204.318 124.977 204.511V204.511Z" fill="#2F2E41"/>
<path d="M102.858 207.98C114.156 207.98 123.314 198.82 123.314 187.522C123.314 176.224 114.156 167.064 102.858 167.064C91.56 167.064 82.4014 176.224 82.4014 187.522C82.4014 198.82 91.56 207.98 102.858 207.98Z" fill="#FFB6B6"/>
<path d="M130.786 180.446L101.804 186.153L100.687 182.05L100.02 186.504L95.5579 187.383L93.345 179.252L92.0238 188.079L83.3888 189.779L83.3084 189.371C82.1842 183.628 83.3839 177.673 86.6442 172.814C89.9046 167.954 94.9592 164.587 100.699 163.449L104.785 162.645C110.528 161.521 116.482 162.72 121.341 165.981C126.201 169.242 129.568 174.297 130.705 180.037L130.786 180.446Z" fill="#2F2E41"/>
<path d="M106.662 212.079C106.444 212.122 106.222 212.146 106 212.15L84.0408 212.584L77.1343 177.509L100.496 172.908L100.05 173.696C93.851 184.666 102.91 198.691 108.862 206.075C109.3 206.615 109.576 207.268 109.659 207.959C109.742 208.65 109.629 209.35 109.331 209.978C109.084 210.515 108.713 210.985 108.249 211.35C107.786 211.715 107.242 211.965 106.662 212.079V212.079Z" fill="#2F2E41"/>
<path d="M418.507 0.229687H135.479V148.85H418.507V0.229687Z" fill="#F2F2F2"/>
<path d="M418.334 0H135.306V17.2291H418.334V0Z" fill="#E6E6E6"/>
<path d="M413.21 24.2148H141.879V141.015H413.21V24.2148Z" fill="white"/>
<path d="M162.126 11.4206C163.7 11.4206 164.976 10.1446 164.976 8.57055C164.976 6.99651 163.7 5.7205 162.126 5.7205C160.552 5.7205 159.276 6.99651 159.276 8.57055C159.276 10.1446 160.552 11.4206 162.126 11.4206Z" fill="white"/>
<path d="M172.943 11.4206C174.517 11.4206 175.793 10.1446 175.793 8.57055C175.793 6.99651 174.517 5.7205 172.943 5.7205C171.369 5.7205 170.094 6.99651 170.094 8.57055C170.094 10.1446 171.369 11.4206 172.943 11.4206Z" fill="white"/>
<path d="M151.28 11.4206C152.854 11.4206 154.13 10.1446 154.13 8.57055C154.13 6.99651 152.854 5.7205 151.28 5.7205C149.706 5.7205 148.43 6.99651 148.43 8.57055C148.43 10.1446 149.706 11.4206 151.28 11.4206Z" fill="white"/>
<path d="M188.105 112.494C190.87 112.494 193.112 110.252 193.112 107.487C193.112 104.721 190.87 102.479 188.105 102.479C185.339 102.479 183.097 104.721 183.097 107.487C183.097 110.252 185.339 112.494 188.105 112.494Z" fill="#E4E4E4"/>
<path d="M232.334 99.3802C235.099 99.3802 237.341 97.1383 237.341 94.3728C237.341 91.6073 235.099 89.3654 232.334 89.3654C229.568 89.3654 227.327 91.6073 227.327 94.3728C227.327 97.1383 229.568 99.3802 232.334 99.3802Z" fill="#E4E4E4"/>
<path d="M276.563 112.494C279.329 112.494 281.57 110.252 281.57 107.487C281.57 104.721 279.329 102.479 276.563 102.479C273.798 102.479 271.556 104.721 271.556 107.487C271.556 110.252 273.798 112.494 276.563 112.494Z" fill="#E4E4E4"/>
<path d="M320.792 46.3451C323.558 46.3451 325.799 44.1032 325.799 41.3377C325.799 38.5722 323.558 36.3303 320.792 36.3303C318.027 36.3303 315.785 38.5722 315.785 41.3377C315.785 44.1032 318.027 46.3451 320.792 46.3451Z" fill="#E4E4E4"/>
<path d="M365.022 45.7288C367.787 45.7288 370.029 43.4869 370.029 40.7214C370.029 37.9559 367.787 35.714 365.022 35.714C362.256 35.714 360.015 37.9559 360.015 40.7214C360.015 43.4869 362.256 45.7288 365.022 45.7288Z" fill="#E4E4E4"/>
<path d="M276.668 108.609L232.333 94.8334L188.605 108.155L187.604 106.819L232.333 92.748L276.458 106.365L320.304 40.635L320.481 40.5632L364.71 40.4855L365.334 42.0343L321.28 42.041L276.668 108.609Z" fill="#E4E4E4"/>
<path d="M465.909 194.873H199.562V334.733H465.909V194.873Z" fill="#F2F2F2"/>
<path d="M465.746 194.657H199.399V210.871H465.746V194.657Z" fill="#E6E6E6"/>
<path d="M460.924 216.508H205.178V327.611H460.924V216.508Z" fill="white"/>
<path d="M224.639 205.405C226.12 205.405 227.321 204.204 227.321 202.722C227.321 201.241 226.12 200.04 224.639 200.04C223.158 200.04 221.957 201.241 221.957 202.722C221.957 204.204 223.158 205.405 224.639 205.405Z" fill="white"/>
<path d="M234.819 205.405C236.3 205.405 237.501 204.204 237.501 202.722C237.501 201.241 236.3 200.04 234.819 200.04C233.338 200.04 232.137 201.241 232.137 202.722C232.137 204.204 233.338 205.405 234.819 205.405Z" fill="white"/>
<path d="M214.432 205.405C215.914 205.405 217.114 204.204 217.114 202.722C217.114 201.241 215.914 200.04 214.432 200.04C212.951 200.04 211.75 201.241 211.75 202.722C211.75 204.204 212.951 205.405 214.432 205.405Z" fill="white"/>
<path d="M643.714 61.293H327.78V227.191H643.714V61.293Z" fill="#E6E6E6"/>
<path d="M643.52 61.0366H327.587V80.2688H643.52V61.0366Z" fill="#FB5012"/>
<path d="M636.113 86.176H334.873V217.933H636.113V86.176Z" fill="white"/>
<path d="M357.525 73.7849C359.282 73.7849 360.707 72.3606 360.707 70.6035C360.707 68.8465 359.282 67.4221 357.525 67.4221C355.769 67.4221 354.344 68.8465 354.344 70.6035C354.344 72.3606 355.769 73.7849 357.525 73.7849Z" fill="white"/>
<path d="M369.601 73.7849C371.358 73.7849 372.782 72.3606 372.782 70.6035C372.782 68.8465 371.358 67.4221 369.601 67.4221C367.844 67.4221 366.419 68.8465 366.419 70.6035C366.419 72.3606 367.844 73.7849 369.601 73.7849Z" fill="white"/>
<path d="M345.418 73.7849C347.175 73.7849 348.6 72.3606 348.6 70.6035C348.6 68.8465 347.175 67.4221 345.418 67.4221C343.662 67.4221 342.237 68.8465 342.237 70.6035C342.237 72.3606 343.662 73.7849 345.418 73.7849Z" fill="white"/>
<path d="M487.644 115.047C487.018 115.13 486.443 115.437 486.027 115.912C485.61 116.388 485.381 116.998 485.381 117.629C485.381 118.261 485.61 118.871 486.027 119.346C486.443 119.822 487.018 120.129 487.644 120.212H594.316C594.942 120.129 595.517 119.822 595.933 119.346C596.349 118.871 596.579 118.261 596.579 117.629C596.579 116.998 596.349 116.388 595.933 115.912C595.517 115.437 594.942 115.13 594.316 115.047H487.644Z" fill="#E6E6E6"/>
<path d="M487.644 175.965C487.018 176.048 486.443 176.355 486.027 176.83C485.61 177.306 485.381 177.916 485.381 178.547C485.381 179.179 485.61 179.789 486.027 180.264C486.443 180.74 487.018 181.047 487.644 181.13H594.316C594.942 181.047 595.517 180.74 595.933 180.264C596.349 179.789 596.579 179.179 596.579 178.547C596.579 177.916 596.349 177.306 595.933 176.83C595.517 176.355 594.942 176.048 594.316 175.965H487.644Z" fill="#E6E6E6"/>
<path d="M487.644 130.544C487.018 130.627 486.443 130.934 486.027 131.41C485.61 131.885 485.381 132.495 485.381 133.127C485.381 133.758 485.61 134.368 486.027 134.844C486.443 135.319 487.018 135.626 487.644 135.709H533.545C534.171 135.626 534.746 135.319 535.162 134.844C535.578 134.368 535.808 133.758 535.808 133.127C535.808 132.495 535.578 131.885 535.162 131.41C534.746 130.934 534.171 130.627 533.545 130.544H487.644Z" fill="#E6E6E6"/>
<path d="M487.644 145.316C487.018 145.399 486.443 145.706 486.027 146.181C485.611 146.657 485.381 147.267 485.381 147.898C485.381 148.53 485.611 149.14 486.027 149.615C486.443 150.091 487.018 150.398 487.644 150.481H594.316C594.942 150.398 595.517 150.091 595.933 149.615C596.35 149.14 596.579 148.53 596.579 147.898C596.579 147.267 596.35 146.657 595.933 146.181C595.517 145.706 594.942 145.399 594.316 145.316H487.644Z" fill="#E6E6E6"/>
<path d="M487.644 160.813C487.018 160.896 486.443 161.204 486.027 161.679C485.61 162.154 485.381 162.764 485.381 163.396C485.381 164.027 485.61 164.638 486.027 165.113C486.443 165.588 487.018 165.895 487.644 165.979H533.545C534.171 165.895 534.746 165.588 535.162 165.113C535.578 164.638 535.808 164.027 535.808 163.396C535.808 162.764 535.578 162.154 535.162 161.679C534.746 161.204 534.171 160.896 533.545 160.813H487.644Z" fill="#E6E6E6"/>
<path d="M425.475 178.301C425.798 178.301 426.118 178.238 426.417 178.115C426.716 177.992 426.988 177.811 427.216 177.583C427.445 177.355 427.627 177.084 427.751 176.785C427.875 176.487 427.939 176.167 427.939 175.843C427.939 175.52 427.875 175.2 427.752 174.901C427.628 174.603 427.447 174.331 427.218 174.103C426.989 173.875 426.718 173.693 426.419 173.57C426.121 173.447 425.801 173.383 425.477 173.384H375.606C375.283 173.383 374.963 173.446 374.664 173.569C374.365 173.692 374.093 173.873 373.865 174.101C373.636 174.33 373.454 174.601 373.33 174.899C373.206 175.198 373.142 175.518 373.142 175.841C373.142 176.164 373.206 176.484 373.329 176.783C373.453 177.081 373.634 177.353 373.863 177.581C374.091 177.81 374.363 177.991 374.662 178.114C374.96 178.238 375.28 178.301 375.604 178.301H425.475Z" fill="#E4E4E4"/>
<path d="M425.475 163.816C426.126 163.815 426.75 163.555 427.21 163.094C427.67 162.633 427.929 162.009 427.929 161.357C427.929 160.706 427.67 160.081 427.21 159.62C426.75 159.16 426.126 158.9 425.475 158.899H375.606C375.283 158.898 374.963 158.961 374.664 159.084C374.365 159.207 374.093 159.388 373.865 159.616C373.636 159.845 373.454 160.116 373.33 160.414C373.206 160.713 373.142 161.033 373.142 161.356C373.142 161.679 373.206 161.999 373.329 162.298C373.453 162.597 373.634 162.868 373.863 163.096C374.091 163.325 374.363 163.506 374.662 163.629C374.96 163.753 375.28 163.816 375.604 163.816H425.475Z" fill="#E4E4E4"/>
<path d="M400.54 117.876C403.601 117.876 406.593 118.784 409.137 120.484C411.682 122.185 413.665 124.602 414.837 127.429C416.008 130.257 416.314 133.368 415.717 136.37C415.12 139.372 413.646 142.13 411.482 144.294C409.318 146.458 406.561 147.932 403.559 148.529C400.558 149.126 397.446 148.82 394.619 147.648C391.791 146.477 389.375 144.494 387.674 141.949C385.974 139.404 385.066 136.412 385.066 133.351V133.351C385.071 129.248 386.703 125.315 389.604 122.414C392.505 119.513 396.438 117.881 400.54 117.876V117.876Z" fill="#FB5012"/>
<path d="M275.399 254.733C278.743 254.733 281.454 252.022 281.454 248.678C281.454 245.334 278.743 242.623 275.399 242.623C272.056 242.623 269.345 245.334 269.345 248.678C269.345 252.022 272.056 254.733 275.399 254.733Z" fill="#E4E4E4"/>
<path d="M372.676 243.966C373.215 243.966 373.75 244.071 374.249 244.277C374.748 244.483 375.201 244.786 375.583 245.167C375.965 245.548 376.268 246.001 376.474 246.5C376.681 246.998 376.788 247.533 376.788 248.073C376.788 248.612 376.681 249.147 376.474 249.645C376.268 250.144 375.965 250.597 375.583 250.978C375.201 251.36 374.748 251.662 374.249 251.868C373.75 252.074 373.215 252.179 372.676 252.179H309C308.461 252.179 307.926 252.074 307.427 251.868C306.929 251.662 306.475 251.36 306.093 250.978C305.711 250.597 305.408 250.144 305.202 249.645C304.995 249.147 304.889 248.612 304.889 248.073C304.889 247.533 304.995 246.998 305.202 246.5C305.408 246.001 305.711 245.548 306.093 245.167C306.475 244.786 306.929 244.483 307.427 244.277C307.926 244.071 308.461 243.966 309 243.966H372.676ZM372.676 242.961H309C307.645 242.961 306.345 243.499 305.386 244.458C304.427 245.417 303.889 246.717 303.889 248.073C303.889 249.428 304.427 250.729 305.386 251.687C306.345 252.646 307.645 253.184 309 253.184H372.676C374.031 253.184 375.332 252.646 376.29 251.687C377.249 250.729 377.787 249.428 377.787 248.073C377.787 246.717 377.249 245.417 376.29 244.458C375.332 243.499 374.031 242.961 372.676 242.961V242.961Z" fill="#E4E4E4"/>
<path d="M347.551 253.184H299.616C298.261 253.184 296.961 252.646 296.002 251.687C295.043 250.729 294.505 249.428 294.505 248.073C294.505 246.717 295.043 245.417 296.002 244.458C296.961 243.499 298.261 242.961 299.616 242.961H347.551C348.906 242.961 350.206 243.499 351.165 244.458C352.124 245.417 352.662 246.717 352.662 248.073C352.662 249.428 352.124 250.729 351.165 251.687C350.206 252.646 348.906 253.184 347.551 253.184Z" fill="#E4E4E4"/>
<path d="M275.399 279.875C278.743 279.875 281.454 277.164 281.454 273.82C281.454 270.476 278.743 267.765 275.399 267.765C272.056 267.765 269.345 270.476 269.345 273.82C269.345 277.164 272.056 279.875 275.399 279.875Z" fill="#E4E4E4"/>
<path d="M372.676 269.108C373.215 269.108 373.75 269.213 374.249 269.419C374.748 269.625 375.201 269.928 375.583 270.309C375.965 270.69 376.268 271.143 376.474 271.642C376.681 272.14 376.788 272.675 376.788 273.215C376.788 273.754 376.681 274.289 376.474 274.787C376.268 275.286 375.965 275.739 375.583 276.12C375.201 276.501 374.748 276.804 374.249 277.01C373.75 277.216 373.215 277.321 372.676 277.321H309C308.461 277.321 307.926 277.216 307.427 277.01C306.929 276.804 306.475 276.501 306.093 276.12C305.711 275.739 305.408 275.286 305.202 274.787C304.995 274.289 304.889 273.754 304.889 273.215C304.889 272.675 304.995 272.14 305.202 271.642C305.408 271.143 305.711 270.69 306.093 270.309C306.475 269.928 306.929 269.625 307.427 269.419C307.926 269.213 308.461 269.108 309 269.108H372.676ZM372.676 268.103H309C307.645 268.103 306.345 268.641 305.386 269.6C304.427 270.559 303.889 271.859 303.889 273.215C303.889 274.57 304.427 275.87 305.386 276.829C306.345 277.788 307.645 278.326 309 278.326H372.676C374.031 278.326 375.332 277.788 376.29 276.829C377.249 275.87 377.787 274.57 377.787 273.215C377.787 271.859 377.249 270.559 376.29 269.6C375.332 268.641 374.031 268.103 372.676 268.103V268.103Z" fill="#E4E4E4"/>
<path d="M365.652 278.326H299.616C298.261 278.326 296.961 277.788 296.002 276.829C295.043 275.87 294.505 274.57 294.505 273.214C294.505 271.859 295.043 270.559 296.002 269.6C296.961 268.641 298.261 268.103 299.616 268.103H365.652C367.006 268.104 368.305 268.644 369.262 269.602C370.219 270.561 370.757 271.86 370.757 273.214C370.757 274.569 370.219 275.868 369.262 276.827C368.305 277.785 367.006 278.325 365.652 278.326V278.326Z" fill="#E4E4E4"/>
<path d="M275.399 305.017C278.743 305.017 281.454 302.306 281.454 298.962C281.454 295.618 278.743 292.907 275.399 292.907C272.056 292.907 269.345 295.618 269.345 298.962C269.345 302.306 272.056 305.017 275.399 305.017Z" fill="#E4E4E4"/>
<path d="M372.676 294.25C373.765 294.25 374.809 294.683 375.579 295.453C376.349 296.223 376.782 297.267 376.782 298.356C376.782 299.445 376.349 300.49 375.579 301.26C374.809 302.03 373.765 302.463 372.676 302.463H309C307.911 302.463 306.867 302.03 306.097 301.26C305.327 300.49 304.895 299.445 304.895 298.356C304.895 297.267 305.327 296.223 306.097 295.453C306.867 294.683 307.911 294.25 309 294.25H372.676ZM372.676 293.245H309C307.645 293.245 306.345 293.783 305.386 294.742C304.427 295.7 303.889 297.001 303.889 298.356C303.889 299.712 304.427 301.012 305.386 301.971C306.345 302.93 307.645 303.468 309 303.468H372.676C374.031 303.468 375.332 302.93 376.29 301.971C377.249 301.012 377.787 299.712 377.787 298.356C377.787 297.001 377.249 295.7 376.29 294.742C375.332 293.783 374.031 293.245 372.676 293.245V293.245Z" fill="#E4E4E4"/>
<path d="M372.903 303.468H299.616C298.261 303.468 296.961 302.93 296.002 301.971C295.043 301.012 294.505 299.712 294.505 298.356C294.505 297.001 295.043 295.7 296.002 294.742C296.961 293.783 298.261 293.245 299.616 293.245H372.903C374.258 293.245 375.558 293.783 376.517 294.742C377.476 295.7 378.014 297.001 378.014 298.356C378.014 299.712 377.476 301.012 376.517 301.971C375.558 302.93 374.258 303.468 372.903 303.468V303.468Z" fill="#E4E4E4"/>
<path d="M563.443 364.659C564.182 363.778 564.72 362.746 565.018 361.635C565.316 360.524 565.366 359.362 565.166 358.229C564.966 357.096 564.519 356.021 563.859 355.08C563.198 354.138 562.339 353.353 561.342 352.779L566.571 325.314L553.161 330.903L550.252 356.128C549.399 357.866 549.214 359.857 549.731 361.723C550.248 363.59 551.432 365.201 553.058 366.253C554.684 367.304 556.639 367.723 558.553 367.429C560.467 367.136 562.207 366.15 563.443 364.659V364.659Z" fill="#FFB7B7"/>
<path d="M630.305 533.191L618.95 533.19L613.549 489.391L630.308 489.391L630.305 533.191Z" fill="#FFB7B7"/>
<path d="M633.201 544.198L596.589 544.197V543.734C596.589 539.954 598.091 536.329 600.763 533.657C603.436 530.984 607.06 529.483 610.839 529.482H610.84L633.202 529.483L633.201 544.198Z" fill="#2F2E41"/>
<path d="M568.252 533.191L556.897 533.19L551.496 489.391L568.254 489.391L568.252 533.191Z" fill="#FFB7B7"/>
<path d="M568.369 544.198L531.757 544.197V543.734C531.757 539.954 533.259 536.329 535.931 533.657C538.603 530.984 542.228 529.483 546.007 529.482H546.008L568.37 529.483L568.369 544.198Z" fill="#2F2E41"/>
<path d="M567.322 348.203L556.208 373.809L547.04 520.986L570.194 520.06L576.518 449.9L596.026 387.411L607.241 457.077L611.872 518.207L631.03 519.037L638.666 348.203H567.322Z" fill="#2F2E41"/>
<path d="M622.877 221.85L590.665 222.656L571.753 232.365L570.715 303.998L558.92 353.454C558.92 353.454 632.616 358.526 642.804 351.116L630.764 294.616L646.913 233.556L622.877 221.85Z" fill="#3F3D56"/>
<path d="M575.194 233.485L571.753 232.365C571.753 232.365 560.838 239.371 561.877 256.307C561.877 256.307 561.468 265.072 561.858 270.904C562.306 277.595 548.892 344.077 548.892 344.077H568.342L576.677 283.872L575.194 233.485Z" fill="#3F3D56"/>
<path d="M646.408 365.585C645.668 364.705 645.131 363.672 644.833 362.562C644.535 361.451 644.485 360.288 644.685 359.155C644.885 358.023 645.331 356.948 645.992 356.006C646.653 355.065 647.512 354.279 648.508 353.706L643.28 326.241L656.69 331.829L659.599 357.054C660.452 358.793 660.637 360.784 660.12 362.65C659.602 364.516 658.419 366.127 656.793 367.179C655.167 368.231 653.212 368.649 651.298 368.355C649.384 368.062 647.644 367.076 646.408 365.585V365.585Z" fill="#FFB7B7"/>
<path d="M642.066 234.411L645.507 233.292C645.507 233.292 656.421 240.297 655.383 257.234C655.383 257.234 655.792 265.998 655.401 271.831C654.953 278.521 660.958 345.003 660.958 345.003H641.509L633.173 284.798L642.066 234.411Z" fill="#3F3D56"/>
<path d="M630.784 191.798C630.784 196.214 629.475 200.532 627.021 204.204C624.567 207.877 621.08 210.739 617 212.429C612.919 214.119 608.43 214.562 604.098 213.7C599.767 212.838 595.788 210.711 592.665 207.588C589.542 204.465 587.415 200.486 586.554 196.154C585.692 191.822 586.134 187.332 587.824 183.252C589.514 179.171 592.376 175.684 596.049 173.23C599.721 170.776 604.038 169.466 608.454 169.466V169.466C611.38 169.459 614.277 170.028 616.983 171.141C619.688 172.253 622.148 173.888 624.221 175.951C626.295 178.015 627.941 180.466 629.068 183.166C630.194 185.866 630.777 188.761 630.784 191.686C630.784 191.723 630.784 191.761 630.784 191.798Z" fill="#FFB7B7"/>
<path d="M586.199 161.803C588.815 156.177 593.877 157.289 598.304 159.196C603.911 157.953 609.243 154.229 615.283 156.431C621.233 165.086 641.211 162.54 636.961 176.63C636.955 180.006 643.313 178.041 642.203 183.57C645.571 194.212 630.046 214.365 621.133 210.121C623.337 206.081 628.372 196.905 620.735 195.994C604.305 211.282 619.04 166.883 598.397 179.795C591.562 186.05 582.204 168.06 586.199 161.803Z" fill="#2F2E41"/>
<path d="M729.155 545H0.844907C0.620824 545 0.405918 544.911 0.247467 544.752C0.0890161 544.594 0 544.379 0 544.155C0 543.931 0.0890161 543.716 0.247467 543.558C0.405918 543.399 0.620824 543.31 0.844907 543.31H729.155C729.379 543.31 729.594 543.399 729.753 543.558C729.911 543.716 730 543.931 730 544.155C730 544.379 729.911 544.594 729.753 544.752C729.594 544.911 729.379 545 729.155 545Z" fill="#CACACA"/>
</svg>
