<svg width="28" height="45" viewBox="0 0 28 45" fill="none" xmlns="http://www.w3.org/2000/svg">
<path d="M26.0869 15.9408L16.5411 18.0282L21.2085 1.68382C21.614 0.263282 19.7146 -0.646743 18.8629 0.563138L0.243982 27.0158C-0.456091 28.0105 0.456483 29.3453 1.6371 29.0546L10.1427 26.9607L5.49058 43.3208C5.08975 44.7304 6.95585 45.6289 7.81754 44.4664L27.4276 18.0137C28.1512 17.0374 27.2739 15.6813 26.0869 15.9408ZM10.0029 37.0911L13.2993 25.4986C13.575 24.5294 12.7006 23.6157 11.7163 23.858L4.42755 25.6523L16.5336 8.45298L13.4003 19.4253C13.1276 20.3803 13.9734 21.2889 14.9495 21.0751L23.2161 19.2673L10.0029 37.0911Z" fill="white"/>
<path d="M25.2359 37.0903L22.0722 37.0376L23.7525 33.7329C24.0825 33.0839 23.824 32.2903 23.1749 31.9604C22.5258 31.6303 21.7324 31.889 21.4024 32.538L18.7659 37.7231C18.2295 38.7746 18.9314 39.4638 19.9424 39.639L23.0986 39.6916L21.3985 43.0919C21.0729 43.7431 21.3368 44.5349 21.988 44.8605C22.6404 45.1868 23.4316 44.9209 23.7566 44.271L26.393 38.9981C26.826 38.1317 26.1994 37.1045 25.2359 37.0903Z" fill="white"/>
<path d="M4.71145 0.142716C4.06024 -0.182802 3.26842 0.0811099 2.94281 0.732233L0.30633 6.0052C-0.12245 6.86284 0.489038 7.91296 1.4931 7.91296H4.62541L2.94281 11.2782C2.61721 11.9294 2.88121 12.7211 3.53233 13.0468C4.18477 13.373 4.97598 13.1072 5.30097 12.4573L7.93745 7.18432C8.37607 6.30699 7.73092 5.27656 6.75833 5.27656H3.61837L5.30097 1.91136C5.62657 1.26014 5.36257 0.468321 4.71145 0.142716Z" fill="white"/>
</svg>
