<svg width="46" height="46" viewBox="0 0 46 46" fill="none" xmlns="http://www.w3.org/2000/svg">
<g clip-path="url(#clip0_340_42963)">
<path d="M30.6667 40.25V36.4167C30.6667 34.3833 29.859 32.4333 28.4212 30.9955C26.9835 29.5577 25.0334 28.75 23.0001 28.75H9.58341C7.55009 28.75 5.60004 29.5577 4.16226 30.9955C2.72448 32.4333 1.91675 34.3833 1.91675 36.4167V40.25M34.5001 15.3333L44.0834 24.9167M44.0834 15.3333L34.5001 24.9167M23.9584 13.4167C23.9584 17.6508 20.5259 21.0833 16.2917 21.0833C12.0576 21.0833 8.62508 17.6508 8.62508 13.4167C8.62508 9.18248 12.0576 5.75 16.2917 5.75C20.5259 5.75 23.9584 9.18248 23.9584 13.4167Z" stroke="white" stroke-width="4" stroke-linecap="round" stroke-linejoin="round"/>
</g>
<defs>
<clipPath id="clip0_340_42963">
<rect width="46" height="46" fill="white"/>
</clipPath>
</defs>
</svg>
