<svg width="44" height="44" viewBox="0 0 44 44" fill="none" xmlns="http://www.w3.org/2000/svg">
<path d="M29.5 2H14.5M29.5 2V10C29.5 11.1046 28.6046 12 27.5 12H16.5C15.3954 12 14.5 11.1046 14.5 10V2M29.5 2L41.4142 13.9142C41.7893 14.2893 42 14.798 42 15.3284V40C42 41.1046 41.1046 42 40 42H32M14.5 2H4C2.89543 2 2 2.89543 2 4V40C2 41.1046 2.89543 42 4 42H12M12 42V31.5C12 30.3954 12.8954 29.5 14 29.5H30C31.1046 29.5 32 30.3954 32 31.5V42M12 42H32" stroke="white" stroke-width="4" stroke-linecap="round" stroke-linejoin="round"/>
</svg>
