<svg width="580" height="395" viewBox="0 0 580 395" fill="none" xmlns="http://www.w3.org/2000/svg">
<path d="M513.302 185.497H74.9844V393.752H513.302V185.497Z" fill="#E6E6E6"/>
<path d="M500.769 203.355H87.5183V377.109H500.769V203.355Z" fill="white"/>
<path d="M431.66 235.696H420.959V246.411H431.66V235.696Z" fill="#E6E6E6"/>
<path d="M146.227 235.696H135.526V246.411H146.227V235.696Z" fill="#FB5012"/>
<path d="M170.887 266.388H135.217V302.104H170.887V266.388Z" fill="#E6E6E6"/>
<path d="M513.116 173.465H74.7976V192.11H513.116V173.465Z" fill="#FB5012"/>
<path d="M88.6354 190.379C90.5416 190.379 92.0868 188.832 92.0868 186.924C92.0868 185.015 90.5416 183.468 88.6354 183.468C86.7293 183.468 85.1841 185.015 85.1841 186.924C85.1841 188.832 86.7293 190.379 88.6354 190.379Z" fill="white"/>
<path d="M101.736 190.379C103.642 190.379 105.187 188.832 105.187 186.924C105.187 185.015 103.642 183.468 101.736 183.468C99.8294 183.468 98.2842 185.015 98.2842 186.924C98.2842 188.832 99.8294 190.379 101.736 190.379Z" fill="white"/>
<path d="M114.836 190.379C116.742 190.379 118.288 188.832 118.288 186.924C118.288 185.015 116.742 183.468 114.836 183.468C112.93 183.468 111.385 185.015 111.385 186.924C111.385 188.832 112.93 190.379 114.836 190.379Z" fill="white"/>
<path d="M580 393.752H0V395H580V393.752Z" fill="#E6E6E6"/>
<path d="M295.276 269.96H207.883V274.983H295.276V269.96Z" fill="#E6E6E6"/>
<path d="M342.837 288.283H207.883V293.306H342.837V288.283Z" fill="#FB5012"/>
<path d="M317.867 305.545H207.883V310.568H317.867V305.545Z" fill="#E6E6E6"/>
<path d="M272.09 322.743H207.883V327.767H272.09V322.743Z" fill="#E6E6E6"/>
<path d="M304.788 339.94H207.883V344.964H304.788V339.94Z" fill="#E6E6E6"/>
<path d="M450.091 235.696H439.39V246.411H450.091V235.696Z" fill="#E6E6E6"/>
<path d="M468.52 235.696H457.819V246.411H468.52V235.696Z" fill="#E6E6E6"/>
<path opacity="0.997" d="M446.787 327.766C458.79 327.766 468.52 318.024 468.52 306.006C468.52 293.988 458.79 284.246 446.787 284.246C434.785 284.246 425.055 293.988 425.055 306.006C425.055 318.024 434.785 327.766 446.787 327.766Z" fill="#FB5012"/>
<path d="M117.426 58.9205C130.938 58.9205 141.893 47.9525 141.893 34.4228C141.893 20.8931 130.938 9.92505 117.426 9.92505C103.914 9.92505 92.9595 20.8931 92.9595 34.4228C92.9595 47.9525 103.914 58.9205 117.426 58.9205Z" fill="#2F2E41"/>
<path d="M56.5379 244.029H45.8225L40.7258 202.656H56.5366L56.5379 244.029Z" fill="#FEB8B8"/>
<path d="M38.1734 240.964H58.8335V253.989H25.1648C25.1648 250.534 26.5353 247.221 28.9749 244.778C31.4145 242.336 34.7233 240.964 38.1734 240.964Z" fill="#2F2E41"/>
<path d="M39.815 238.042L29.5942 234.831L37.1025 193.826L52.1875 198.567L39.815 238.042Z" fill="#FEB8B8"/>
<path d="M23.2037 229.614L42.9165 235.808L39.0214 248.236L6.89746 238.141C7.40897 236.509 8.2365 234.994 9.33283 233.683C10.4291 232.371 11.7728 231.288 13.287 230.496C14.8012 229.704 16.4564 229.219 18.158 229.067C19.8596 228.916 21.5744 229.102 23.2043 229.614L23.2037 229.614Z" fill="#2F2E41"/>
<path d="M43.3007 221.533C42.8326 221.533 42.3684 221.448 41.9302 221.283L34.0463 218.325C33.1615 217.989 32.4264 217.347 31.9751 216.514C31.5238 215.682 31.3861 214.715 31.5874 213.789C33.5716 204.856 40.3341 174.443 44.0371 158.13C48.4285 138.781 112.494 135.186 115.219 135.042L115.443 135.031L122.65 144.095C125.254 152.476 124.429 159.013 120.197 163.525C107.847 176.69 70.977 168.521 66.5805 167.488L46.9845 218.998C46.6989 219.744 46.1941 220.385 45.5367 220.838C44.8794 221.29 44.1004 221.533 43.3026 221.533H43.3007Z" fill="#2F2E41"/>
<path d="M54.6602 227.658C54.192 227.658 53.7278 227.573 53.2896 227.408L45.4082 224.449C44.5233 224.114 43.7882 223.471 43.3368 222.639C42.8855 221.806 42.7479 220.839 42.9493 219.913C44.9335 210.98 51.696 180.567 55.399 164.255C59.7905 144.906 123.856 141.31 126.581 141.167L126.805 141.155L134.009 150.222C136.613 158.603 135.788 165.14 131.556 169.652C119.207 182.814 82.3363 174.648 77.9399 173.614L58.3414 225.122C58.0558 225.868 57.551 226.509 56.8937 226.962C56.2363 227.415 55.4573 227.657 54.6595 227.657L54.6602 227.658Z" fill="#2F2E41"/>
<path d="M31.8584 101.648C32.1478 102.036 32.4063 102.446 32.6315 102.875L75.7284 107.421L81.9333 98.9036L95.9935 106.598L83.8085 127.265L30.9538 113.771C29.6203 115.073 27.9225 115.938 26.0864 116.25C24.2502 116.562 22.3627 116.307 20.6748 115.519C18.9869 114.731 17.5787 113.447 16.6373 111.837C15.696 110.228 15.2663 108.371 15.4052 106.511C15.5441 104.651 16.2452 102.878 17.4151 101.427C18.5851 99.9763 20.1685 98.9163 21.9547 98.3884C23.7409 97.8605 25.6453 97.8895 27.4146 98.4717C29.184 99.0539 30.7344 100.162 31.8596 101.648L31.8584 101.648Z" fill="#FEB8B8"/>
<path d="M132.009 153.692C131.386 153.691 130.772 153.541 130.218 153.255C121.6 148.868 104.819 141.27 89.2583 139.68C88.7258 139.627 88.21 139.464 87.7442 139.2C87.2784 138.937 86.8727 138.579 86.5533 138.149C86.2277 137.714 85.995 137.217 85.8697 136.689C85.7444 136.16 85.7292 135.612 85.8251 135.077C87.2293 127.294 90.4501 107.476 90.0352 91.5922C89.913 86.7085 91.454 81.9284 94.4049 78.0379C97.3557 74.1473 101.541 71.3779 106.272 70.1847C109.12 69.4324 112.012 68.8613 114.932 68.4749C118.288 68.0492 121.698 68.4167 124.887 69.5477C128.077 70.6787 130.957 72.542 133.298 74.9882C135.639 77.4343 137.375 80.3954 138.368 83.6343C139.36 86.8731 139.581 90.2997 139.013 93.6395C136.238 110.1 133.44 133.09 135.872 149.139C135.984 149.858 135.894 150.594 135.614 151.266C135.333 151.937 134.873 152.518 134.283 152.944C133.623 153.427 132.827 153.689 132.009 153.692Z" fill="#CCCCCC"/>
<path d="M90.8333 111.825C90.2961 111.824 89.7648 111.713 89.2721 111.499L78.0452 106.633C77.089 106.218 76.3364 105.439 75.9528 104.469C75.5691 103.498 75.5856 102.415 75.9987 101.456L84.6769 81.3835C85.1924 80.1671 85.9421 79.0644 86.8833 78.1382C87.8244 77.212 88.9385 76.4804 90.162 75.9853C91.3855 75.4902 92.6944 75.2413 94.0139 75.2527C95.3335 75.2641 96.6379 75.5356 97.8527 76.0518C99.0675 76.5679 100.169 77.3186 101.094 78.2609C102.019 79.2033 102.749 80.3188 103.244 81.5438C103.738 82.7689 103.987 84.0794 103.976 85.4007C103.964 86.7219 103.693 88.028 103.178 89.2444C103.159 89.2886 103.14 89.3326 103.12 89.3766L94.4422 109.45C94.1367 110.154 93.6325 110.754 92.9915 111.176C92.3505 111.598 91.6004 111.824 90.8333 111.825Z" fill="#CCCCCC"/>
<path d="M116.532 61.6465C128.385 61.6465 137.994 52.0254 137.994 40.1572C137.994 28.289 128.385 18.668 116.532 18.668C104.679 18.668 95.0701 28.289 95.0701 40.1572C95.0701 52.0254 104.679 61.6465 116.532 61.6465Z" fill="#FEB8B8"/>
<path d="M94.6838 29.5972C104.85 35.8108 116.31 39.5919 128.174 40.6462L124.643 36.4114C127.214 37.3629 129.918 37.9006 132.657 38.0045C134.028 38.0443 135.389 37.7618 136.632 37.1795C137.874 36.5972 138.963 35.7315 139.81 34.6517C140.503 33.5309 140.914 32.2592 141.009 30.945C141.104 29.6307 140.88 28.3129 140.357 27.1039C139.281 24.6917 137.607 22.5952 135.493 21.014C131.747 18.0464 127.325 16.0531 122.622 15.2115C117.92 14.37 113.082 14.7065 108.541 16.1909C105.426 17.123 102.636 18.9149 100.491 21.3614C98.456 23.8746 94.5393 26.114 95.5809 29.1761L94.6838 29.5972Z" fill="#2F2E41"/>
<path d="M118.451 11.4944C122.729 7.14977 127.906 3.79685 133.618 1.67176C137.243 0.144711 141.219 -0.349424 145.107 0.243925C148.94 1.01617 152.565 3.67098 153.635 7.43675C154.507 10.5157 153.606 13.8311 152.249 16.7311C150.892 19.631 149.081 22.3177 147.983 25.3243C146.863 28.3922 146.526 31.6916 147.003 34.9229C147.48 38.1542 148.755 41.2151 150.713 43.8277C152.671 46.4403 155.25 48.522 158.215 49.8836C161.18 51.2452 164.438 51.8437 167.693 51.6248C163.927 52.1307 160.456 53.9028 156.775 54.8453C153.093 55.7879 148.749 55.7249 146.013 53.0838C143.119 50.2899 143.061 45.7475 143.201 41.7247L143.824 23.7835C143.93 20.7339 144.021 17.5863 142.922 14.7387C141.823 11.8912 139.213 9.39916 136.165 9.42536C133.855 9.4447 131.811 10.8463 129.958 12.228C128.105 13.6097 126.145 15.0837 123.844 15.2895C121.543 15.4954 118.916 13.7924 119.088 11.4845" fill="#2F2E41"/>
<path d="M80.4494 148.172C79.0274 148.17 77.6234 147.852 76.3387 147.242C75.054 146.632 73.9205 145.743 73.0199 144.642C72.1193 143.54 71.4739 142.252 71.1303 140.87C70.7868 139.488 70.7535 138.048 71.033 136.651C71.3125 135.255 71.8977 133.939 72.7465 132.796C73.5954 131.654 74.6867 130.714 75.9418 130.045C77.197 129.376 78.5848 128.994 80.0052 128.926C81.4256 128.859 82.8433 129.108 84.1561 129.655C84.551 129.822 84.9339 130.016 85.3018 130.236L124.397 112.664L125.496 102.047L142.348 101.595L142.236 119.27C142.216 121.318 141.537 123.304 140.299 124.935C139.062 126.565 137.332 127.753 135.367 128.32L89.649 141.348C89.5608 141.651 89.4568 141.948 89.3375 142.24C88.604 143.994 87.3698 145.492 85.7895 146.547C84.2092 147.603 82.3531 148.167 80.4537 148.171L80.4494 148.172Z" fill="#FEB8B8"/>
<path d="M140.921 110.256C140.441 110.499 139.917 110.64 139.381 110.672L127.171 111.424C126.13 111.487 125.107 111.134 124.326 110.443C123.545 109.751 123.07 108.778 123.005 107.736L121.665 85.9039C121.504 83.2422 122.405 80.6255 124.171 78.6286C125.936 76.6318 128.42 75.4182 131.078 75.2545C133.737 75.0907 136.351 75.9902 138.347 77.7553C140.344 79.5205 141.558 82.0068 141.725 84.6682L143.066 106.501C143.112 107.267 142.934 108.031 142.553 108.698C142.173 109.365 141.606 109.907 140.922 110.256H140.921Z" fill="#CCCCCC"/>
<path d="M116.333 144.254H43.4009C42.7891 144.254 42.2932 144.751 42.2932 145.363V149.27C42.2932 149.882 42.7891 150.379 43.4009 150.379H116.333C116.945 150.379 117.441 149.882 117.441 149.27V145.363C117.441 144.751 116.945 144.254 116.333 144.254Z" fill="#3F3D56"/>
<path d="M14.2695 144.692V101.82C14.2713 100.313 14.8703 98.8672 15.9351 97.8011C16.9999 96.735 18.4435 96.1352 19.9493 96.1334H97.7185C99.2244 96.1351 100.668 96.7348 101.733 97.8009C102.798 98.8671 103.397 100.313 103.398 101.82V144.692C103.397 146.2 102.798 147.646 101.733 148.712C100.668 149.778 99.2244 150.378 97.7185 150.379H19.9493C18.4435 150.377 16.9999 149.778 15.9351 148.712C14.8703 147.645 14.2713 146.2 14.2695 144.692Z" fill="#3F3D56"/>
<path d="M59.7692 128.508C62.6648 128.508 65.0122 126.158 65.0122 123.259C65.0122 120.359 62.6648 118.009 59.7692 118.009C56.8735 118.009 54.5261 120.359 54.5261 123.259C54.5261 126.158 56.8735 128.508 59.7692 128.508Z" fill="white"/>
</svg>
