<svg width="153" height="45" viewBox="0 0 153 45" fill="none" xmlns="http://www.w3.org/2000/svg">
<path d="M0.362308 5.10649C0.171209 2.67679 2.17887 0.64241 4.61087 0.801364L74.1815 5.34846C75.4368 5.43051 76.5 4.43448 76.5 3.17655V3.17655C76.5 1.97447 77.4745 1 78.6765 1H145.347C147.416 1 149.143 2.57754 149.331 4.63786L152.579 40.3719C152.801 42.8081 150.803 44.8708 148.361 44.7271L78.8121 40.636C77.5577 40.5622 76.5 41.5596 76.5 42.8161V42.8161C76.5 44.0222 75.5222 45 74.3161 45H7.19775C5.11024 45 3.37374 43.3947 3.21006 41.3136L0.362308 5.10649Z" fill="#FB5012"/>
<path d="M19.9567 31V18.088H23.5327V21.736L23.0287 20.68C23.4127 19.768 24.0287 19.08 24.8767 18.616C25.7247 18.136 26.7567 17.896 27.9727 17.896V21.352C27.8127 21.336 27.6687 21.328 27.5407 21.328C27.4127 21.312 27.2767 21.304 27.1327 21.304C26.1087 21.304 25.2767 21.6 24.6367 22.192C24.0127 22.768 23.7007 23.672 23.7007 24.904V31H19.9567ZM37.5932 31.192C36.1212 31.192 34.8252 30.904 33.7052 30.328C32.6012 29.752 31.7452 28.968 31.1372 27.976C30.5292 26.968 30.2252 25.824 30.2252 24.544C30.2252 23.248 30.5212 22.104 31.1132 21.112C31.7212 20.104 32.5452 19.32 33.5852 18.76C34.6252 18.184 35.8012 17.896 37.1132 17.896C38.3772 17.896 39.5132 18.168 40.5212 18.712C41.5452 19.24 42.3532 20.008 42.9452 21.016C43.5372 22.008 43.8332 23.2 43.8332 24.592C43.8332 24.736 43.8252 24.904 43.8092 25.096C43.7932 25.272 43.7772 25.44 43.7612 25.6H33.2732V23.416H41.7932L40.3532 24.064C40.3532 23.392 40.2172 22.808 39.9452 22.312C39.6732 21.816 39.2972 21.432 38.8172 21.16C38.3372 20.872 37.7772 20.728 37.1372 20.728C36.4972 20.728 35.9292 20.872 35.4332 21.16C34.9532 21.432 34.5772 21.824 34.3052 22.336C34.0332 22.832 33.8972 23.424 33.8972 24.112V24.688C33.8972 25.392 34.0492 26.016 34.3532 26.56C34.6732 27.088 35.1132 27.496 35.6732 27.784C36.2492 28.056 36.9212 28.192 37.6892 28.192C38.3772 28.192 38.9772 28.088 39.4892 27.88C40.0172 27.672 40.4972 27.36 40.9292 26.944L42.9212 29.104C42.3292 29.776 41.5852 30.296 40.6892 30.664C39.7932 31.016 38.7612 31.192 37.5932 31.192ZM51.7498 31.192C50.6458 31.192 49.5818 31.064 48.5578 30.808C47.5498 30.536 46.7498 30.2 46.1578 29.8L47.4058 27.112C47.9978 27.48 48.6938 27.784 49.4938 28.024C50.3098 28.248 51.1098 28.36 51.8938 28.36C52.7578 28.36 53.3658 28.256 53.7178 28.048C54.0858 27.84 54.2698 27.552 54.2698 27.184C54.2698 26.88 54.1258 26.656 53.8378 26.512C53.5658 26.352 53.1978 26.232 52.7338 26.152C52.2698 26.072 51.7578 25.992 51.1978 25.912C50.6538 25.832 50.1018 25.728 49.5418 25.6C48.9818 25.456 48.4698 25.248 48.0058 24.976C47.5418 24.704 47.1658 24.336 46.8778 23.872C46.6058 23.408 46.4698 22.808 46.4698 22.072C46.4698 21.256 46.7018 20.536 47.1658 19.912C47.6458 19.288 48.3338 18.8 49.2298 18.448C50.1258 18.08 51.1978 17.896 52.4458 17.896C53.3258 17.896 54.2218 17.992 55.1338 18.184C56.0458 18.376 56.8058 18.656 57.4138 19.024L56.1658 21.688C55.5418 21.32 54.9098 21.072 54.2698 20.944C53.6458 20.8 53.0378 20.728 52.4458 20.728C51.6138 20.728 51.0058 20.84 50.6218 21.064C50.2378 21.288 50.0458 21.576 50.0458 21.928C50.0458 22.248 50.1818 22.488 50.4538 22.648C50.7418 22.808 51.1178 22.936 51.5818 23.032C52.0458 23.128 52.5498 23.216 53.0938 23.296C53.6538 23.36 54.2138 23.464 54.7738 23.608C55.3338 23.752 55.8378 23.96 56.2858 24.232C56.7498 24.488 57.1258 24.848 57.4138 25.312C57.7018 25.76 57.8458 26.352 57.8458 27.088C57.8458 27.888 57.6058 28.6 57.1258 29.224C56.6458 29.832 55.9498 30.312 55.0378 30.664C54.1418 31.016 53.0458 31.192 51.7498 31.192ZM66.6838 31.192C65.6118 31.192 64.6518 30.984 63.8038 30.568C62.9718 30.152 62.3238 29.52 61.8598 28.672C61.3958 27.808 61.1638 26.712 61.1638 25.384V18.088H64.9078V24.832C64.9078 25.904 65.1318 26.696 65.5798 27.208C66.0438 27.704 66.6918 27.952 67.5238 27.952C68.0998 27.952 68.6118 27.832 69.0598 27.592C69.5078 27.336 69.8598 26.952 70.1158 26.44C70.3718 25.912 70.4998 25.256 70.4998 24.472V18.088H74.2438V31H70.6918V27.448L71.3398 28.48C70.9078 29.376 70.2678 30.056 69.4198 30.52C68.5878 30.968 67.6758 31.192 66.6838 31.192ZM95.3284 17.896C96.3524 17.896 97.2564 18.104 98.0404 18.52C98.8404 18.92 99.4644 19.544 99.9124 20.392C100.376 21.224 100.608 22.296 100.608 23.608V31H96.8644V24.184C96.8644 23.144 96.6484 22.376 96.2164 21.88C95.7844 21.384 95.1764 21.136 94.3924 21.136C93.8484 21.136 93.3604 21.264 92.9284 21.52C92.4964 21.76 92.1604 22.128 91.9204 22.624C91.6804 23.12 91.5604 23.752 91.5604 24.52V31H87.8164V24.184C87.8164 23.144 87.6004 22.376 87.1684 21.88C86.7524 21.384 86.1524 21.136 85.3684 21.136C84.8244 21.136 84.3364 21.264 83.9044 21.52C83.4724 21.76 83.1364 22.128 82.8964 22.624C82.6564 23.12 82.5364 23.752 82.5364 24.52V31H78.7924V18.088H82.3684V21.616L81.6964 20.584C82.1444 19.704 82.7764 19.04 83.5924 18.592C84.4244 18.128 85.3684 17.896 86.4244 17.896C87.6084 17.896 88.6404 18.2 89.5204 18.808C90.4164 19.4 91.0084 20.312 91.2964 21.544L89.9764 21.184C90.4084 20.176 91.0964 19.376 92.0404 18.784C93.0004 18.192 94.0964 17.896 95.3284 17.896ZM111.546 31.192C110.074 31.192 108.778 30.904 107.658 30.328C106.554 29.752 105.698 28.968 105.09 27.976C104.482 26.968 104.178 25.824 104.178 24.544C104.178 23.248 104.474 22.104 105.066 21.112C105.674 20.104 106.498 19.32 107.538 18.76C108.578 18.184 109.754 17.896 111.066 17.896C112.33 17.896 113.466 18.168 114.474 18.712C115.498 19.24 116.306 20.008 116.898 21.016C117.49 22.008 117.786 23.2 117.786 24.592C117.786 24.736 117.778 24.904 117.762 25.096C117.746 25.272 117.73 25.44 117.714 25.6H107.226V23.416H115.746L114.306 24.064C114.306 23.392 114.17 22.808 113.898 22.312C113.626 21.816 113.25 21.432 112.77 21.16C112.29 20.872 111.73 20.728 111.09 20.728C110.45 20.728 109.882 20.872 109.386 21.16C108.906 21.432 108.53 21.824 108.258 22.336C107.986 22.832 107.85 23.424 107.85 24.112V24.688C107.85 25.392 108.002 26.016 108.306 26.56C108.626 27.088 109.066 27.496 109.626 27.784C110.202 28.056 110.874 28.192 111.642 28.192C112.33 28.192 112.93 28.088 113.442 27.88C113.97 27.672 114.45 27.36 114.882 26.944L116.874 29.104C116.282 29.776 115.538 30.296 114.642 30.664C113.746 31.016 112.714 31.192 111.546 31.192ZM127.767 31.192C126.295 31.192 124.999 30.904 123.879 30.328C122.775 29.752 121.919 28.968 121.311 27.976C120.703 26.968 120.399 25.824 120.399 24.544C120.399 23.248 120.695 22.104 121.287 21.112C121.895 20.104 122.719 19.32 123.759 18.76C124.799 18.184 125.975 17.896 127.287 17.896C128.551 17.896 129.687 18.168 130.695 18.712C131.719 19.24 132.527 20.008 133.119 21.016C133.711 22.008 134.007 23.2 134.007 24.592C134.007 24.736 133.999 24.904 133.983 25.096C133.967 25.272 133.951 25.44 133.935 25.6H123.447V23.416H131.967L130.527 24.064C130.527 23.392 130.391 22.808 130.119 22.312C129.847 21.816 129.471 21.432 128.991 21.16C128.511 20.872 127.951 20.728 127.311 20.728C126.671 20.728 126.103 20.872 125.607 21.16C125.127 21.432 124.751 21.824 124.479 22.336C124.207 22.832 124.071 23.424 124.071 24.112V24.688C124.071 25.392 124.223 26.016 124.527 26.56C124.847 27.088 125.287 27.496 125.847 27.784C126.423 28.056 127.095 28.192 127.863 28.192C128.551 28.192 129.151 28.088 129.663 27.88C130.191 27.672 130.671 27.36 131.103 26.944L133.095 29.104C132.503 29.776 131.759 30.296 130.863 30.664C129.967 31.016 128.935 31.192 127.767 31.192Z" fill="white"/>
</svg>
