<svg width="465" height="434" viewBox="0 0 465 434" fill="none" xmlns="http://www.w3.org/2000/svg">
<g clip-path="url(#clip0_30_14224)">
<path d="M219.223 3.62076L204.994 11.382L29.6909 107.003L15.4619 114.764C8.55761 118.54 3.43352 124.9 1.21385 132.448C-1.00582 139.996 -0.139817 148.116 3.62188 155.027L134.166 394.213C137.943 401.115 144.305 406.238 151.856 408.457C159.406 410.676 167.529 409.81 174.442 406.05L174.478 406.03L378.166 294.927L378.203 294.907C385.107 291.131 390.231 284.771 392.451 277.222C394.671 269.674 393.805 261.554 390.043 254.643L259.499 15.4573C255.721 8.55509 249.36 3.43253 241.809 1.21351C234.259 -1.00552 226.136 -0.139789 219.223 3.62076Z" fill="#F2F2F2"/>
<path d="M223.316 11.1198L206.463 20.3125L36.4079 113.07L19.555 122.263C14.6382 124.952 10.9892 129.481 9.40852 134.856C7.82783 140.232 8.44453 146.014 11.1233 150.935L141.668 390.121C144.357 395.037 148.888 398.685 154.265 400.265C159.642 401.845 165.426 401.228 170.349 398.55L170.385 398.53L374.073 287.427L374.11 287.407C379.027 284.718 382.676 280.189 384.256 274.814C385.837 269.439 385.22 263.656 382.542 258.735L251.997 19.549C249.307 14.6337 244.777 10.9858 239.4 9.40561C234.023 7.82537 228.239 8.44184 223.316 11.1198Z" fill="white"/>
<path d="M226.126 85.3632L150.159 126.8C149.008 127.428 147.654 127.573 146.397 127.203C145.139 126.834 144.08 125.98 143.452 124.829C142.824 123.679 142.679 122.326 143.048 121.069C143.418 119.811 144.272 118.752 145.423 118.124L221.391 76.6872C222.542 76.0595 223.895 75.9145 225.153 76.2841C226.411 76.6538 227.47 77.5078 228.098 78.6583C228.726 79.8088 228.871 81.1616 228.501 82.419C228.131 83.6764 227.277 84.7355 226.126 85.3632H226.126Z" fill="#F2F2F2"/>
<path d="M252.017 90.2404L158.149 141.441C156.998 142.069 155.645 142.214 154.387 141.844C153.13 141.475 152.07 140.621 151.442 139.47C150.814 138.32 150.669 136.967 151.039 135.709C151.409 134.452 152.263 133.393 153.414 132.765L247.281 81.5644C247.851 81.2536 248.477 81.058 249.122 80.9888C249.768 80.9197 250.42 80.9783 251.043 81.1613C251.666 81.3443 252.247 81.6482 252.752 82.0556C253.257 82.4629 253.677 82.9658 253.988 83.5355C254.299 84.1052 254.495 84.7305 254.564 85.3758C254.633 86.021 254.575 86.6736 254.392 87.2962C254.208 87.9188 253.904 88.4993 253.497 89.0044C253.09 89.5096 252.587 89.9296 252.017 90.2404H252.017Z" fill="#F2F2F2"/>
<path d="M118.927 109.552L48.8896 147.754C48.3383 148.055 47.9291 148.563 47.7519 149.165C47.5748 149.767 47.6442 150.416 47.9449 150.967L77.7688 205.611C78.0698 206.162 78.5774 206.571 79.18 206.748C79.7826 206.925 80.431 206.856 80.9824 206.555L151.02 168.353C151.572 168.052 151.981 167.544 152.158 166.942C152.335 166.339 152.266 165.691 151.965 165.14L122.141 110.496C121.84 109.945 121.333 109.536 120.73 109.359C120.127 109.181 119.479 109.251 118.927 109.552Z" fill="#F2F2F2"/>
<path d="M263.82 154.697L160.779 210.902C160.209 211.213 159.584 211.408 158.938 211.477C158.293 211.546 157.64 211.488 157.017 211.305C156.394 211.122 155.814 210.818 155.308 210.411C154.803 210.003 154.383 209.5 154.072 208.931C153.761 208.361 153.565 207.736 153.496 207.09C153.427 206.445 153.486 205.793 153.669 205.17C153.852 204.547 154.156 203.967 154.563 203.462C154.971 202.957 155.474 202.537 156.044 202.226L259.084 146.021C260.235 145.394 261.588 145.249 262.846 145.618C264.104 145.988 265.163 146.842 265.791 147.993C266.419 149.143 266.564 150.496 266.194 151.753C265.825 153.011 264.97 154.07 263.82 154.697H263.82Z" fill="#F2F2F2"/>
<path d="M289.71 159.575L168.77 225.543C167.619 226.171 166.266 226.315 165.008 225.946C163.75 225.576 162.691 224.722 162.063 223.572C161.435 222.421 161.29 221.068 161.659 219.811C162.029 218.554 162.883 217.494 164.034 216.867L284.975 150.899C286.126 150.271 287.479 150.126 288.737 150.496C289.994 150.865 291.054 151.719 291.682 152.87C292.31 154.02 292.455 155.373 292.085 156.631C291.715 157.888 290.861 158.947 289.71 159.575H289.71Z" fill="#F2F2F2"/>
<path d="M121.536 256.931C133.118 256.931 142.508 247.545 142.508 235.966C142.508 224.387 133.118 215.001 121.536 215.001C109.954 215.001 100.564 224.387 100.564 235.966C100.564 247.545 109.954 256.931 121.536 256.931Z" fill="#F2F2F2"/>
<path d="M435.316 102.177H203.198C195.328 102.185 187.782 105.315 182.217 110.878C176.653 116.441 173.522 123.984 173.513 131.852V404.325C173.522 412.192 176.653 419.735 182.217 425.298C187.782 430.862 195.328 433.991 203.198 434H435.316C443.186 433.991 450.731 430.862 456.296 425.298C461.861 419.735 464.991 412.192 465 404.325V131.852C464.991 123.984 461.861 116.441 456.296 110.878C450.731 105.315 443.186 102.185 435.316 102.177Z" fill="#E6E6E6"/>
<path d="M435.316 110.719H203.198C197.593 110.726 192.22 112.954 188.257 116.916C184.294 120.878 182.065 126.249 182.059 131.852V404.325C182.065 409.927 184.294 415.299 188.257 419.261C192.22 423.222 197.593 425.451 203.198 425.457H435.316C440.921 425.451 446.294 423.222 450.256 419.261C454.219 415.299 456.448 409.927 456.455 404.325V131.852C456.448 126.249 454.219 120.878 450.256 116.916C446.294 112.954 440.921 110.726 435.316 110.719Z" fill="white"/>
<path d="M402.212 177.238H315.672C314.361 177.238 313.104 176.718 312.177 175.791C311.25 174.864 310.729 173.607 310.729 172.296C310.729 170.986 311.25 169.729 312.177 168.802C313.104 167.875 314.361 167.355 315.672 167.355H402.212C402.862 167.354 403.505 167.481 404.106 167.729C404.706 167.977 405.252 168.341 405.711 168.8C406.171 169.259 406.535 169.804 406.784 170.404C407.033 171.004 407.161 171.647 407.161 172.296C407.161 172.946 407.033 173.589 406.784 174.189C406.535 174.789 406.171 175.334 405.711 175.793C405.252 176.252 404.706 176.616 404.106 176.864C403.505 177.112 402.862 177.239 402.212 177.238Z" fill="#FB5012"/>
<path d="M422.603 193.917H315.672C314.361 193.917 313.104 193.396 312.177 192.469C311.25 191.543 310.729 190.286 310.729 188.975C310.729 187.664 311.25 186.407 312.177 185.481C313.104 184.554 314.361 184.033 315.672 184.033H422.603C423.914 184.033 425.171 184.554 426.098 185.481C427.025 186.407 427.546 187.664 427.546 188.975C427.546 190.286 427.025 191.543 426.098 192.469C425.171 193.396 423.914 193.917 422.603 193.917Z" fill="#FB5012"/>
<path d="M296.521 147.143H216.736C216.108 147.143 215.505 147.392 215.061 147.836C214.617 148.28 214.367 148.882 214.367 149.51V211.759C214.367 212.387 214.617 212.989 215.061 213.433C215.505 213.877 216.108 214.127 216.736 214.127H296.521C297.149 214.127 297.751 213.877 298.195 213.433C298.639 212.989 298.889 212.387 298.889 211.759V149.51C298.889 148.882 298.639 148.28 298.195 147.836C297.751 147.392 297.149 147.143 296.521 147.143Z" fill="#E6E6E6"/>
<path d="M238.621 185.368C238.654 190.623 236.717 195.699 233.191 199.597C229.702 203.424 224.508 205.963 219.267 204.913C214.441 203.945 210.52 199.729 211.009 194.627C211.09 193.523 211.411 192.449 211.95 191.481C212.489 190.512 213.233 189.673 214.129 189.022C215.026 188.371 216.053 187.923 217.141 187.709C218.228 187.496 219.349 187.522 220.426 187.786C225.01 188.975 226.837 195.581 223.017 198.681C222.1 199.425 220.783 198.124 221.708 197.373C224.234 195.323 223.453 190.84 220.405 189.715C216.856 188.406 213.096 191.222 212.841 194.849C212.538 199.149 215.834 202.388 219.875 203.151C224.247 203.975 228.582 201.738 231.544 198.651C234.939 195.065 236.813 190.304 236.771 185.368C236.779 185.128 236.88 184.901 237.053 184.734C237.225 184.567 237.456 184.474 237.696 184.474C237.936 184.474 238.167 184.567 238.339 184.734C238.512 184.901 238.613 185.128 238.621 185.368Z" fill="#2F2E41"/>
<path d="M256.69 197.128C274.922 197.128 289.701 182.352 289.701 164.126C289.701 145.9 274.922 131.125 256.69 131.125C238.458 131.125 223.679 145.9 223.679 164.126C223.679 182.352 238.458 197.128 256.69 197.128Z" fill="#FB5012"/>
<path d="M255.001 178.207L254.967 176.974C257.262 176.91 259.285 176.766 260.805 175.656C261.236 175.323 261.591 174.902 261.844 174.42C262.098 173.938 262.244 173.407 262.274 172.864C262.301 172.532 262.251 172.198 262.127 171.888C262.004 171.579 261.811 171.302 261.563 171.079C260.554 170.227 258.93 170.503 257.746 171.045L256.726 171.513L258.683 157.213L259.905 157.381L258.24 169.545C259.849 169.072 261.339 169.275 262.36 170.137C262.751 170.479 263.059 170.907 263.258 171.388C263.457 171.868 263.542 172.388 263.507 172.907C263.471 173.637 263.276 174.351 262.935 174.998C262.594 175.645 262.115 176.209 261.533 176.652C259.58 178.079 257.041 178.15 255.001 178.207Z" fill="#2F2E41"/>
<path d="M272.594 158.43H265.95V159.663H272.594V158.43Z" fill="#2F2E41"/>
<path d="M251.622 158.43H244.978V159.663H251.622V158.43Z" fill="#2F2E41"/>
<path d="M238.404 214.127C240.879 212.557 243.553 211.328 246.355 210.47C246.088 209.52 246.092 208.514 246.367 207.566C246.739 206.369 247.489 205.323 248.504 204.587C249.519 203.85 250.745 203.461 251.999 203.478H260.042C261.298 203.462 262.526 203.852 263.543 204.589C264.56 205.327 265.312 206.373 265.686 207.572C265.962 208.518 265.966 209.522 265.698 210.47C268.5 211.329 271.174 212.558 273.649 214.127H238.404Z" fill="#2F2E41"/>
<path d="M294.504 151.878C293.902 151.15 293.162 150.549 292.326 150.109C291.593 149.726 290.779 149.525 289.952 149.523C288.816 149.537 287.713 149.908 286.8 150.584C284.289 152.359 282.55 156.189 282.55 160.622C282.55 166.184 285.288 170.797 288.847 171.598C289.21 171.679 289.58 171.721 289.952 171.722C294.029 171.722 297.353 166.745 297.353 160.622C297.353 157.071 296.237 153.907 294.504 151.878Z" fill="#3F3D56"/>
<path d="M226.704 150.318H226.697C225.873 149.807 224.923 149.531 223.953 149.523C223.125 149.525 222.311 149.726 221.578 150.109C220.742 150.549 220.002 151.15 219.401 151.878L219.394 151.885C217.667 153.913 216.551 157.077 216.551 160.622C216.551 165.407 218.574 169.489 221.411 171.049C222.188 171.485 223.062 171.716 223.953 171.722C224.151 171.722 224.348 171.709 224.545 171.685H224.551C228.35 171.228 231.354 166.443 231.354 160.622C231.354 155.961 229.424 151.959 226.704 150.318Z" fill="#3F3D56"/>
<path d="M221.874 169.988C222.021 169.988 222.165 169.953 222.296 169.886C222.427 169.819 222.54 169.722 222.625 169.602C222.711 169.483 222.767 169.345 222.789 169.2C222.811 169.055 222.798 168.906 222.751 168.767C220.982 163.51 220.45 157.917 221.196 152.421C221.942 146.925 223.945 141.675 227.051 137.079C230.156 132.483 234.28 128.665 239.101 125.921C243.922 123.178 249.311 121.582 254.85 121.259C260.388 120.936 265.927 121.894 271.034 124.059C276.142 126.223 280.682 129.536 284.301 133.74C287.92 137.944 290.52 142.925 291.9 148.297C293.28 153.669 293.403 159.286 292.258 164.713C292.207 164.953 292.254 165.204 292.388 165.409C292.522 165.615 292.732 165.759 292.972 165.809C293.212 165.86 293.463 165.813 293.668 165.679C293.874 165.545 294.018 165.335 294.068 165.095C295.273 159.389 295.145 153.483 293.694 147.835C292.244 142.187 289.51 136.949 285.705 132.529C281.901 128.109 277.128 124.626 271.757 122.35C266.387 120.074 260.564 119.066 254.741 119.406C248.918 119.746 243.251 121.424 238.182 124.309C233.113 127.194 228.778 131.209 225.514 136.041C222.249 140.874 220.144 146.394 219.36 152.172C218.577 157.951 219.137 163.832 220.997 169.359C221.059 169.542 221.177 169.701 221.334 169.814C221.492 169.927 221.68 169.988 221.874 169.988Z" fill="#3F3D56"/>
<path d="M273.273 142.744C274.58 144.528 273.936 146.932 272.559 148.47C270.767 150.471 267.909 150.597 265.427 150.226C262.643 149.809 259.689 148.505 256.87 149.384C254.467 150.133 252.753 152.311 250.257 152.859C248.044 153.344 245.396 152.702 244.62 150.343C244.247 149.209 246.034 148.723 246.405 149.851C246.907 151.377 249.075 151.347 250.316 150.924C252.306 150.246 253.84 148.599 255.797 147.812C258.103 146.884 260.606 147.303 262.954 147.831C265.167 148.329 267.714 149.068 269.919 148.137C271.551 147.449 272.849 145.279 271.675 143.678C270.971 142.716 272.576 141.793 273.273 142.744Z" fill="#2F2E41"/>
<path d="M402.082 256.151H284.701C284.052 256.151 283.409 256.023 282.809 255.774C282.21 255.526 281.665 255.162 281.206 254.703C280.747 254.244 280.383 253.699 280.134 253.1C279.886 252.5 279.758 251.858 279.758 251.209C279.758 250.56 279.886 249.917 280.134 249.318C280.383 248.718 280.747 248.173 281.206 247.714C281.665 247.256 282.21 246.892 282.809 246.643C283.409 246.395 284.052 246.267 284.701 246.267H402.082C403.392 246.269 404.648 246.79 405.573 247.716C406.499 248.643 407.019 249.899 407.019 251.209C407.019 252.518 406.499 253.775 405.573 254.701C404.648 255.628 403.392 256.149 402.082 256.151Z" fill="#E6E6E6"/>
<path d="M422.473 272.829H284.701C284.052 272.83 283.408 272.702 282.808 272.454C282.207 272.206 281.662 271.842 281.202 271.384C280.743 270.925 280.378 270.38 280.129 269.78C279.88 269.18 279.752 268.537 279.752 267.887C279.752 267.238 279.88 266.595 280.129 265.995C280.378 265.395 280.743 264.85 281.202 264.391C281.662 263.932 282.207 263.568 282.808 263.32C283.408 263.072 284.052 262.945 284.701 262.946H422.473C423.122 262.945 423.766 263.072 424.366 263.32C424.966 263.568 425.512 263.932 425.971 264.391C426.431 264.85 426.796 265.395 427.044 265.995C427.293 266.595 427.421 267.238 427.421 267.887C427.421 268.537 427.293 269.18 427.044 269.78C426.796 270.38 426.431 270.925 425.971 271.384C425.512 271.842 424.966 272.206 424.366 272.454C423.766 272.702 423.122 272.83 422.473 272.829Z" fill="#E6E6E6"/>
<path d="M402.082 316.095H284.701C283.39 316.095 282.133 315.575 281.206 314.648C280.279 313.721 279.758 312.464 279.758 311.153C279.758 309.843 280.279 308.586 281.206 307.659C282.133 306.732 283.39 306.212 284.701 306.212H402.082C403.393 306.212 404.65 306.732 405.577 307.659C406.504 308.586 407.025 309.843 407.025 311.153C407.025 312.464 406.504 313.721 405.577 314.648C404.65 315.575 403.393 316.095 402.082 316.095Z" fill="#E6E6E6"/>
<path d="M422.472 332.774H284.701C283.39 332.774 282.133 332.253 281.206 331.326C280.279 330.399 279.758 329.142 279.758 327.832C279.758 326.521 280.279 325.264 281.206 324.338C282.133 323.411 283.39 322.89 284.701 322.89H422.472C423.783 322.89 425.041 323.411 425.968 324.338C426.895 325.264 427.416 326.521 427.416 327.832C427.416 329.142 426.895 330.399 425.968 331.326C425.041 332.253 423.783 332.774 422.472 332.774Z" fill="#E6E6E6"/>
<path d="M238.244 280.328C249.826 280.328 259.216 270.941 259.216 259.363C259.216 247.784 249.826 238.397 238.244 238.397C226.662 238.397 217.272 247.784 217.272 259.363C217.272 270.941 226.662 280.328 238.244 280.328Z" fill="#E6E6E6"/>
<path d="M238.244 340.757C249.826 340.757 259.216 331.371 259.216 319.792C259.216 308.213 249.826 298.827 238.244 298.827C226.662 298.827 217.272 308.213 217.272 319.792C217.272 331.371 226.662 340.757 238.244 340.757Z" fill="#E6E6E6"/>
<path d="M402.082 376.525H284.701C283.39 376.525 282.133 376.004 281.206 375.077C280.279 374.15 279.758 372.894 279.758 371.583C279.758 370.272 280.279 369.015 281.206 368.089C282.133 367.162 283.39 366.641 284.701 366.641H402.082C403.393 366.641 404.65 367.162 405.577 368.089C406.504 369.015 407.025 370.272 407.025 371.583C407.025 372.894 406.504 374.15 405.577 375.077C404.65 376.004 403.393 376.525 402.082 376.525Z" fill="#E6E6E6"/>
<path d="M422.472 393.203H284.701C283.39 393.203 282.133 392.682 281.206 391.756C280.279 390.829 279.758 389.572 279.758 388.261C279.758 386.951 280.279 385.694 281.206 384.767C282.133 383.84 283.39 383.32 284.701 383.32H422.472C423.783 383.32 425.041 383.84 425.968 384.767C426.895 385.694 427.416 386.951 427.416 388.261C427.416 389.572 426.895 390.829 425.968 391.756C425.041 392.682 423.783 393.203 422.472 393.203Z" fill="#E6E6E6"/>
<path d="M238.244 401.187C249.826 401.187 259.216 391.801 259.216 380.222C259.216 368.643 249.826 359.256 238.244 359.256C226.662 359.256 217.272 368.643 217.272 380.222C217.272 391.801 226.662 401.187 238.244 401.187Z" fill="#E6E6E6"/>
</g>
<defs>
<clipPath id="clip0_30_14224">
<rect width="465" height="434" fill="white"/>
</clipPath>
</defs>
</svg>
